STARTFONT 2.1
FONT -FontForge-Checkbook-Book-R-Normal--25-240-75-75-P-115-ISO10646-1
SIZE 24 75 75
FONTBOUNDINGBOX 17 25 0 -4
COMMENT "Generated by fontforge, http://fontforge.sourceforge.net"
COMMENT "Allen R. Walden's Friendly Fonts (Unprotected. Please distribute freely.)"
STARTPROPERTIES 39
FOUNDRY "FontForge"
FAMILY_NAME "Checkbook"
WEIGHT_NAME "Book"
SLANT "R"
SETWIDTH_NAME "Normal"
ADD_STYLE_NAME ""
PIXEL_SIZE 25
POINT_SIZE 240
RESOLUTION_X 75
RESOLUTION_Y 75
SPACING "P"
AVERAGE_WIDTH 115
CHARSET_REGISTRY "ISO10646"
CHARSET_ENCODING "1"
FONTNAME_REGISTRY ""
CHARSET_COLLECTIONS "ISO10646-1"
FONT_NAME "Checkbook"
FACE_NAME "Checkbook"
COPYRIGHT "Allen R. Walden's Friendly Fonts (Unprotected. Please distribute freely.)"
FONT_VERSION "04-18-93"
FONT_ASCENT 20
FONT_DESCENT 5
UNDERLINE_POSITION -1
UNDERLINE_THICKNESS 1
X_HEIGHT 11
CAP_HEIGHT 20
RAW_ASCENT 799
RAW_DESCENT 200
NORM_SPACE 8
RELATIVE_WEIGHT 40
RELATIVE_SETWIDTH 50
SUPERSCRIPT_X 0
SUPERSCRIPT_Y 10
SUPERSCRIPT_SIZE 4
SUBSCRIPT_X 0
SUBSCRIPT_Y 0
SUBSCRIPT_SIZE 4
AVG_LOWERCASE_WIDTH 94
AVG_UPPERCASE_WIDTH 140
ENDPROPERTIES
CHARS 88
STARTCHAR space
ENCODING 32
SWIDTH 323 0
DWIDTH 8 0
BBX 1 1 0 0
BITMAP
00
ENDCHAR
STARTCHAR exclam
ENCODING 33
SWIDTH 269 0
DWIDTH 7 0
BBX 5 21 1 0
BITMAP
70
F8
F8
F8
F8
F8
F8
F8
F0
70
70
70
70
60
60
20
00
F8
F8
F8
F8
ENDCHAR
STARTCHAR dollar
ENCODING 36
SWIDTH 490 0
DWIDTH 12 0
BBX 11 23 1 -2
BITMAP
1200
1200
FFC0
FFC0
D200
D200
D200
D200
D200
D200
FFC0
FFC0
7FE0
12E0
12E0
12E0
12E0
12E0
12E0
FFE0
FFC0
1200
1200
ENDCHAR
STARTCHAR percent
ENCODING 37
SWIDTH 615 0
DWIDTH 15 0
BBX 14 21 1 0
BITMAP
F818
8C10
8C30
8C20
9C60
9C40
9CC0
9D80
F980
0300
0300
0600
04F8
0C8C
088C
188C
109C
309C
609C
609C
40F8
ENDCHAR
STARTCHAR ampersand
ENCODING 38
SWIDTH 635 0
DWIDTH 16 0
BBX 14 23 1 -2
BITMAP
3FFC
3FFC
301C
300C
300C
300C
300C
300C
381C
3FFC
7FFC
FE00
F300
F380
F180
F0C0
F0EC
F07C
F03C
F03C
FFFC
000C
0004
ENDCHAR
STARTCHAR quotesingle
ENCODING 39
SWIDTH 195 0
DWIDTH 5 0
BBX 3 7 1 14
BITMAP
E0
E0
E0
E0
60
60
C0
ENDCHAR
STARTCHAR parenleft
ENCODING 40
SWIDTH 331 0
DWIDTH 8 0
BBX 6 23 1 -2
BITMAP
04
0C
18
38
30
70
70
E0
E0
E0
E0
E0
E0
E0
E0
E0
60
70
30
30
18
0C
04
ENDCHAR
STARTCHAR parenright
ENCODING 41
SWIDTH 322 0
DWIDTH 8 0
BBX 6 23 1 -2
BITMAP
80
C0
60
30
38
38
1C
1C
1C
1C
1C
1C
1C
1C
1C
1C
1C
38
38
30
60
40
80
ENDCHAR
STARTCHAR asterisk
ENCODING 42
SWIDTH 327 0
DWIDTH 8 0
BBX 7 7 1 14
BITMAP
30
30
FC
FE
78
7C
48
ENDCHAR
STARTCHAR comma
ENCODING 44
SWIDTH 242 0
DWIDTH 6 0
BBX 5 9 1 -4
BITMAP
F0
F8
F8
F8
F8
70
70
F0
C0
ENDCHAR
STARTCHAR period
ENCODING 46
SWIDTH 236 0
DWIDTH 6 0
BBX 4 4 1 0
BITMAP
F0
F0
F0
F0
ENDCHAR
STARTCHAR slash
ENCODING 47
SWIDTH 540 0
DWIDTH 14 0
BBX 12 21 1 0
BITMAP
0010
0030
0060
0060
00C0
00C0
0180
0100
0300
0600
0600
0C00
0C00
1800
1000
3000
2000
6000
C000
C000
8000
ENDCHAR
STARTCHAR zero
ENCODING 48
SWIDTH 701 0
DWIDTH 18 0
BBX 16 20 1 0
BITMAP
3FFC
7FFE
E00E
C007
C007
C007
C007
C007
C007
C007
C007
C7C7
C7C7
C7C7
C7C7
C007
C007
E00E
7FFE
3FF8
ENDCHAR
STARTCHAR one
ENCODING 49
SWIDTH 427 0
DWIDTH 11 0
BBX 9 21 1 0
BITMAP
F000
F800
F800
7800
3800
3800
3800
3800
3800
3800
3800
7800
FF80
FF80
FF80
FF80
FF80
FF80
FF80
FF80
FF80
ENDCHAR
STARTCHAR two
ENCODING 50
SWIDTH 439 0
DWIDTH 11 0
BBX 9 21 1 0
BITMAP
FF80
FF80
0180
0180
0180
0180
0180
0180
0180
0180
FF80
FF80
E000
C000
C000
C000
C000
C000
E000
FF80
FF80
ENDCHAR
STARTCHAR three
ENCODING 51
SWIDTH 527 0
DWIDTH 13 0
BBX 11 21 1 0
BITMAP
FF80
FF80
0380
0180
0180
0180
0180
0180
0180
0380
FF80
FFE0
03E0
01E0
01E0
01E0
01E0
01E0
03E0
FFE0
FFE0
ENDCHAR
STARTCHAR four
ENCODING 52
SWIDTH 618 0
DWIDTH 15 0
BBX 14 21 1 0
BITMAP
F000
F800
F800
F800
F800
F800
F800
F800
F800
F800
F800
F800
F87C
F87C
FFFC
FFFC
007C
007C
007C
007C
0078
ENDCHAR
STARTCHAR five
ENCODING 53
SWIDTH 520 0
DWIDTH 13 0
BBX 11 20 1 0
BITMAP
FFE0
FFE0
E000
C000
C000
C000
C000
C000
C000
FFE0
FFE0
01E0
01E0
01E0
01E0
01E0
01E0
01E0
FFE0
FFE0
ENDCHAR
STARTCHAR six
ENCODING 54
SWIDTH 615 0
DWIDTH 15 0
BBX 14 20 1 0
BITMAP
FF80
FF80
E180
E180
E180
E000
E000
E000
E000
E000
E000
FFF8
FFFC
E01C
E01C
E01C
E01C
E01C
FFFC
FFF8
ENDCHAR
STARTCHAR seven
ENCODING 55
SWIDTH 531 0
DWIDTH 13 0
BBX 12 21 1 0
BITMAP
FFE0
FFF0
E070
C070
C070
C070
C070
00F0
03E0
07E0
0F80
0E00
0E00
0E00
0E00
0E00
0E00
0E00
0E00
0E00
0600
ENDCHAR
STARTCHAR eight
ENCODING 56
SWIDTH 706 0
DWIDTH 18 0
BBX 16 20 1 0
BITMAP
3FF8
3FFC
381C
381C
381C
381C
381C
381C
381C
3FFC
FFFF
F81F
F81F
F81F
F81F
F81F
F81F
F81F
FFFF
FFFF
ENDCHAR
STARTCHAR nine
ENCODING 57
SWIDTH 616 0
DWIDTH 15 0
BBX 14 20 1 0
BITMAP
FFF8
FFFC
E01C
E01C
E01C
E01C
E01C
E01C
E01C
FFFC
FFFC
007C
007C
007C
007C
007C
007C
007C
007C
007C
ENDCHAR
STARTCHAR colon
ENCODING 58
SWIDTH 249 0
DWIDTH 6 0
BBX 5 13 1 0
BITMAP
F0
F8
F8
F8
00
00
00
00
00
F0
F8
F8
F8
ENDCHAR
STARTCHAR semicolon
ENCODING 59
SWIDTH 241 0
DWIDTH 6 0
BBX 5 17 1 -4
BITMAP
F0
F8
F8
F0
00
00
00
00
F0
F8
F8
F8
F8
70
70
F0
C0
ENDCHAR
STARTCHAR question
ENCODING 63
SWIDTH 506 0
DWIDTH 13 0
BBX 11 20 1 0
BITMAP
FFE0
FFE0
C060
C060
C060
C060
C060
00E0
03E0
0FC0
0F00
0E00
0E00
0E00
0400
0000
1F00
1F00
1F00
1F00
ENDCHAR
STARTCHAR A
ENCODING 65
SWIDTH 604 0
DWIDTH 15 0
BBX 14 21 1 0
BITMAP
1FF8
3FFC
301C
300C
300C
300C
300C
300C
301C
3FFC
3FFC
F81C
F00C
F00C
F00C
F00C
F00C
F00C
F00C
F00C
F008
ENDCHAR
STARTCHAR B
ENCODING 66
SWIDTH 611 0
DWIDTH 15 0
BBX 14 21 1 0
BITMAP
FFE0
FFE0
F860
F060
F060
F060
F060
F060
F870
FFF8
FFFC
F81C
F00C
F00C
F00C
F00C
F00C
F00C
F81C
FFFC
FFF8
ENDCHAR
STARTCHAR C
ENCODING 67
SWIDTH 532 0
DWIDTH 13 0
BBX 12 21 1 0
BITMAP
FFF0
FFF0
C1F0
C1F0
C1F0
C1F0
C0E0
C000
C000
C000
C000
C000
C000
C000
C020
C030
C030
C030
C070
FFF0
FFE0
ENDCHAR
STARTCHAR D
ENCODING 68
SWIDTH 601 0
DWIDTH 15 0
BBX 13 21 1 0
BITMAP
FFE0
FFF0
F838
F018
F018
F018
F018
F018
F018
F018
F018
F018
F018
F018
F018
F018
F018
F018
F838
FFF0
FFE0
ENDCHAR
STARTCHAR E
ENCODING 69
SWIDTH 500 0
DWIDTH 13 0
BBX 11 21 1 0
BITMAP
FFE0
FFE0
C000
C000
C000
C000
C000
C000
C000
FFE0
FFE0
F800
F000
F000
F000
F000
F000
F000
F800
FFE0
FFE0
ENDCHAR
STARTCHAR F
ENCODING 70
SWIDTH 499 0
DWIDTH 12 0
BBX 11 21 1 0
BITMAP
FFE0
FFE0
F800
F000
F000
F000
F000
F000
F800
7FE0
3FE0
3800
3000
3000
3000
3000
3000
3000
3000
3000
3000
ENDCHAR
STARTCHAR G
ENCODING 71
SWIDTH 621 0
DWIDTH 16 0
BBX 14 21 1 0
BITMAP
FFF8
FFF8
F878
F038
F038
F038
F000
F000
F000
F000
F0FC
F0FC
F01C
F00C
F00C
F00C
F00C
F00C
F81C
FFFC
FFFC
ENDCHAR
STARTCHAR H
ENCODING 72
SWIDTH 620 0
DWIDTH 16 0
BBX 14 21 1 0
BITMAP
8020
C060
C070
C070
C070
C070
C070
C070
C070
C070
FFFC
FFFC
F07C
F07C
F07C
F07C
F07C
F07C
F07C
F07C
F07C
ENDCHAR
STARTCHAR I
ENCODING 73
SWIDTH 239 0
DWIDTH 6 0
BBX 4 21 1 0
BITMAP
20
30
30
30
30
30
30
30
30
30
30
F0
F0
F0
F0
F0
F0
F0
F0
F0
F0
ENDCHAR
STARTCHAR J
ENCODING 74
SWIDTH 625 0
DWIDTH 16 0
BBX 14 21 1 0
BITMAP
0020
0030
0030
0030
0030
0030
0030
0030
0030
0038
003C
003C
003C
003C
F03C
F03C
F03C
F03C
F07C
FFFC
FFFC
ENDCHAR
STARTCHAR K
ENCODING 75
SWIDTH 627 0
DWIDTH 16 0
BBX 14 21 1 0
BITMAP
C00C
C01C
C038
C0E0
C1C0
C380
C700
CE00
FC00
FFFC
FFFC
F87C
F03C
F03C
F03C
F03C
F03C
F03C
F03C
F03C
F03C
ENDCHAR
STARTCHAR L
ENCODING 76
SWIDTH 499 0
DWIDTH 12 0
BBX 11 21 1 0
BITMAP
1000
3000
3000
3000
3000
3000
3000
3000
3000
3000
3000
F000
F000
F000
F000
F000
F000
F000
F000
FFE0
FFE0
ENDCHAR
STARTCHAR M
ENCODING 77
SWIDTH 718 0
DWIDTH 18 0
BBX 16 21 1 0
BITMAP
E03F
F07F
F87F
D8EF
DCCF
CD8F
CF8F
C70F
C70F
C20F
C00F
C00F
C00F
C00F
C00F
C78F
CF8F
CF8F
CF8F
CF8F
878F
ENDCHAR
STARTCHAR N
ENCODING 78
SWIDTH 628 0
DWIDTH 16 0
BBX 14 21 1 0
BITMAP
F008
F80C
DC0C
CC0C
C60C
C30C
C38C
C1CC
C0EC
C07C
C03C
C03C
C01C
C00C
C00C
C78C
C78C
C78C
C78C
C78C
C78C
ENDCHAR
STARTCHAR O
ENCODING 79
SWIDTH 603 0
DWIDTH 15 0
BBX 13 21 1 0
BITMAP
FFF8
FFF8
C018
C018
C018
C018
C018
C018
C018
C078
C078
C078
C078
C078
C078
C078
C078
C078
C0F8
FFF8
FFF8
ENDCHAR
STARTCHAR P
ENCODING 80
SWIDTH 575 0
DWIDTH 14 0
BBX 13 21 1 0
BITMAP
FFF0
FFF8
C038
C018
C018
C018
C018
C018
C018
C038
FFF8
FFF0
F800
F000
F000
F000
F000
F000
F000
F000
F000
ENDCHAR
STARTCHAR Q
ENCODING 81
SWIDTH 601 0
DWIDTH 15 0
BBX 13 24 1 -3
BITMAP
FFF8
FFF8
C018
C018
C018
C018
E018
F018
F018
F018
F018
F018
F018
F018
F018
F198
F198
F1D8
F1D8
FFF8
FFF8
0060
0070
0030
ENDCHAR
STARTCHAR R
ENCODING 82
SWIDTH 639 0
DWIDTH 16 0
BBX 14 21 1 0
BITMAP
FFF0
FFF0
C030
C030
C030
C030
C030
C030
C070
FFFC
FFFC
F83C
F03C
F03C
F03C
F03C
F03C
F03C
F03C
F03C
F03C
ENDCHAR
STARTCHAR S
ENCODING 83
SWIDTH 531 0
DWIDTH 13 0
BBX 12 21 1 0
BITMAP
FFE0
FFF0
C070
C070
C070
C020
C000
C000
C000
FFE0
FFF0
0070
0030
0030
F030
F030
F030
F030
F070
FFF0
FFE0
ENDCHAR
STARTCHAR T
ENCODING 84
SWIDTH 603 0
DWIDTH 15 0
BBX 13 21 1 0
BITMAP
FFF8
FFF8
0F80
0F80
0F80
0F80
0F80
0F80
0F80
0F80
0F80
0F80
0F80
0F80
0F80
0F80
0F80
0F80
0F80
0F80
0780
ENDCHAR
STARTCHAR U
ENCODING 85
SWIDTH 534 0
DWIDTH 13 0
BBX 12 21 1 0
BITMAP
80E0
C1F0
C1F0
C1F0
C1F0
C1F0
C1F0
C1F0
C1F0
C1F0
C1F0
C1F0
C1F0
C1F0
C1F0
C1F0
C1F0
C1F0
C1F0
FFF0
FFF0
ENDCHAR
STARTCHAR V
ENCODING 86
SWIDTH 532 0
DWIDTH 13 0
BBX 12 21 1 0
BITMAP
80E0
C1F0
C1F0
C1F0
C1F0
C1F0
C1F0
C1F0
C1F0
C1F0
C1F0
C1F0
C1F0
C1F0
C1F0
61F0
31E0
31C0
1B80
0F00
0E00
ENDCHAR
STARTCHAR W
ENCODING 87
SWIDTH 719 0
DWIDTH 18 0
BBX 16 21 1 0
BITMAP
70E2
F1E3
F1E3
F1E3
F1E3
F1E3
F1E3
F003
F103
F383
F383
F3C3
F6C3
F6E3
F463
FC73
FC33
FC3B
F81B
F81F
F00F
ENDCHAR
STARTCHAR X
ENCODING 88
SWIDTH 542 0
DWIDTH 14 0
BBX 12 21 1 0
BITMAP
C020
C030
C030
C030
C030
C030
E070
79C0
1F80
1F00
1F00
3F80
79E0
E070
C030
C030
C030
C030
C030
C030
C030
ENDCHAR
STARTCHAR Y
ENCODING 89
SWIDTH 533 0
DWIDTH 13 0
BBX 12 21 1 0
BITMAP
8020
C030
C030
C030
C030
C030
C030
C030
C070
60E0
39C0
1F80
0F00
0F00
0F00
0F00
0F00
0F00
0F00
0F00
0F00
ENDCHAR
STARTCHAR Z
ENCODING 90
SWIDTH 593 0
DWIDTH 15 0
BBX 13 21 1 0
BITMAP
FFF8
FFF0
C070
C060
C0E0
C0C0
81C0
0180
0380
0300
0600
0E00
0C00
1C00
1878
3878
3078
7078
6078
FFF8
FFF8
ENDCHAR
STARTCHAR a
ENCODING 97
SWIDTH 392 0
DWIDTH 10 0
BBX 8 12 1 0
BITMAP
7F
41
41
41
41
7F
C1
C1
C1
C1
C1
C1
ENDCHAR
STARTCHAR b
ENCODING 98
SWIDTH 397 0
DWIDTH 10 0
BBX 9 12 1 0
BITMAP
FE00
E200
C200
C200
E200
FF80
E180
C180
C180
C180
E180
FF80
ENDCHAR
STARTCHAR c
ENCODING 99
SWIDTH 346 0
DWIDTH 9 0
BBX 7 12 1 0
BITMAP
FE
8E
8E
86
80
80
80
80
82
82
82
FE
ENDCHAR
STARTCHAR d
ENCODING 100
SWIDTH 390 0
DWIDTH 10 0
BBX 8 12 1 0
BITMAP
FE
E1
C1
C1
C1
C1
C1
C1
C1
C1
E1
FE
ENDCHAR
STARTCHAR e
ENCODING 101
SWIDTH 324 0
DWIDTH 8 0
BBX 7 12 1 0
BITMAP
FE
80
80
80
80
FE
C0
C0
C0
C0
C0
FE
ENDCHAR
STARTCHAR f
ENCODING 102
SWIDTH 324 0
DWIDTH 8 0
BBX 7 12 1 0
BITMAP
FE
C0
C0
C0
C0
7E
40
40
40
40
40
40
ENDCHAR
STARTCHAR g
ENCODING 103
SWIDTH 403 0
DWIDTH 10 0
BBX 9 12 1 0
BITMAP
FF00
E300
E300
E000
E000
E780
E180
E180
E180
E180
E180
FF80
ENDCHAR
STARTCHAR h
ENCODING 104
SWIDTH 403 0
DWIDTH 10 0
BBX 9 12 1 0
BITMAP
8200
8200
8200
8200
8200
FF80
C380
C380
C380
C380
C380
C380
ENDCHAR
STARTCHAR i
ENCODING 105
SWIDTH 156 0
DWIDTH 4 0
BBX 2 12 1 0
BITMAP
40
40
40
40
40
40
C0
C0
C0
C0
C0
C0
ENDCHAR
STARTCHAR j
ENCODING 106
SWIDTH 406 0
DWIDTH 10 0
BBX 9 12 1 0
BITMAP
0200
0200
0200
0200
0200
0380
0380
0380
C380
C380
C380
FF80
ENDCHAR
STARTCHAR k
ENCODING 107
SWIDTH 408 0
DWIDTH 10 0
BBX 9 12 1 0
BITMAP
8380
8600
8C00
9800
B000
FF80
E380
C380
C380
C380
C380
C380
ENDCHAR
STARTCHAR l
ENCODING 108
SWIDTH 324 0
DWIDTH 8 0
BBX 7 12 1 0
BITMAP
40
40
40
40
40
40
C0
C0
C0
C0
C0
FE
ENDCHAR
STARTCHAR m
ENCODING 109
SWIDTH 467 0
DWIDTH 12 0
BBX 11 12 0 0
BITMAP
F1E0
D2E0
D6E0
CCE0
CCE0
C0E0
C0E0
C0E0
CCE0
CCE0
CCE0
4CE0
ENDCHAR
STARTCHAR n
ENCODING 110
SWIDTH 408 0
DWIDTH 10 0
BBX 9 13 1 0
BITMAP
C000
E180
B180
9980
8D80
8580
8380
8180
8180
9980
9980
9980
9980
ENDCHAR
STARTCHAR o
ENCODING 111
SWIDTH 391 0
DWIDTH 10 0
BBX 8 12 1 0
BITMAP
FF
81
81
81
81
87
87
87
87
87
87
FF
ENDCHAR
STARTCHAR p
ENCODING 112
SWIDTH 374 0
DWIDTH 9 0
BBX 8 12 1 0
BITMAP
FF
81
81
81
81
FF
C0
C0
C0
C0
C0
C0
ENDCHAR
STARTCHAR q
ENCODING 113
SWIDTH 390 0
DWIDTH 10 0
BBX 8 14 1 -2
BITMAP
FF
81
81
81
C1
C1
C1
C1
C1
CD
CD
FF
06
02
ENDCHAR
STARTCHAR r
ENCODING 114
SWIDTH 415 0
DWIDTH 10 0
BBX 9 12 1 0
BITMAP
FE00
8200
8200
8200
8200
FF80
E380
C380
C380
C380
C380
C380
ENDCHAR
STARTCHAR s
ENCODING 115
SWIDTH 345 0
DWIDTH 9 0
BBX 7 12 1 0
BITMAP
FE
82
82
80
80
FE
02
02
C2
C2
C2
FE
ENDCHAR
STARTCHAR t
ENCODING 116
SWIDTH 391 0
DWIDTH 10 0
BBX 9 12 0 0
BITMAP
FF80
0C00
0C00
0C00
0C00
0C00
0C00
0C00
0C00
0C00
0C00
0C00
ENDCHAR
STARTCHAR u
ENCODING 117
SWIDTH 347 0
DWIDTH 9 0
BBX 7 12 1 0
BITMAP
8E
8E
8E
8E
8E
8E
8E
8E
8E
8E
8E
FE
ENDCHAR
STARTCHAR v
ENCODING 118
SWIDTH 346 0
DWIDTH 9 0
BBX 7 13 1 0
BITMAP
04
8E
8E
8E
8E
8E
8E
8E
8E
CE
4E
28
30
ENDCHAR
STARTCHAR w
ENCODING 119
SWIDTH 468 0
DWIDTH 12 0
BBX 10 12 1 0
BITMAP
CE40
CE40
CE40
CE40
C040
C840
DC40
D440
F240
E340
E140
E1C0
ENDCHAR
STARTCHAR x
ENCODING 120
SWIDTH 352 0
DWIDTH 9 0
BBX 7 12 1 0
BITMAP
82
82
82
C6
7C
38
7C
C6
82
82
82
82
ENDCHAR
STARTCHAR y
ENCODING 121
SWIDTH 346 0
DWIDTH 9 0
BBX 7 12 1 0
BITMAP
82
82
82
82
82
4C
38
38
38
38
38
38
ENDCHAR
STARTCHAR z
ENCODING 122
SWIDTH 385 0
DWIDTH 10 0
BBX 8 12 1 0
BITMAP
FF
82
86
8C
08
18
10
30
67
47
C7
FF
ENDCHAR
STARTCHAR cent
ENCODING 162
SWIDTH 344 0
DWIDTH 9 0
BBX 7 17 1 3
BITMAP
10
30
FE
FE
BE
A6
80
80
80
80
84
92
92
FE
FC
30
10
ENDCHAR
STARTCHAR sterling
ENCODING 163
SWIDTH 556 0
DWIDTH 14 0
BBX 12 20 1 0
BITMAP
0C00
0C00
CC00
CC00
6C00
3C00
1C00
1C00
0E00
0E00
1F00
3D80
3CC0
3CE0
3C60
3C00
3C00
3C00
3FF0
3FF0
ENDCHAR
STARTCHAR bullet
ENCODING 165
SWIDTH 331 0
DWIDTH 8 0
BBX 7 7 1 5
BITMAP
FC
FE
FE
FE
FE
FE
FC
ENDCHAR
STARTCHAR nonbreakingspace
ENCODING 202
SWIDTH 500 0
DWIDTH 13 0
BBX 1 1 0 0
BITMAP
00
ENDCHAR
STARTCHAR endash
ENCODING 208
SWIDTH 668 0
DWIDTH 17 0
BBX 15 6 1 6
BITMAP
0002
7FFE
FFFE
FFFE
FFFC
8000
ENDCHAR
STARTCHAR emdash
ENCODING 209
SWIDTH 475 0
DWIDTH 12 0
BBX 10 6 1 6
BITMAP
0040
7FC0
FFC0
FF80
FF80
8000
ENDCHAR
STARTCHAR quotedblleft
ENCODING 210
SWIDTH 407 0
DWIDTH 10 0
BBX 9 7 1 14
BITMAP
2100
E700
C600
E700
E700
E780
E700
ENDCHAR
STARTCHAR quotedblright
ENCODING 211
SWIDTH 395 0
DWIDTH 10 0
BBX 8 7 1 14
BITMAP
E7
E7
E7
63
63
E7
C6
ENDCHAR
STARTCHAR .notdef
ENCODING -1
SWIDTH 750 0
DWIDTH 19 0
BBX 13 16 3 0
BITMAP
FFF8
8008
8008
8008
8008
8008
8008
8008
8008
8008
8008
8008
8008
8008
8008
FFF8
ENDCHAR
STARTCHAR .null
ENCODING -1
SWIDTH 0 0
DWIDTH 0 0
BBX 1 1 0 0
BITMAP
00
ENDCHAR
STARTCHAR nonmarkingreturn
ENCODING -1
SWIDTH 323 0
DWIDTH 8 0
BBX 1 1 0 0
BITMAP
00
ENDCHAR
ENDFONT
